<svg xmlns="http://www.w3.org/2000/svg" viewBox="0 0 1440 320">
    <path fill="#00cba9" fill-opacity="1" d="M0,32L12.6,80C25.3,128,51,224,76,266.7C101.1,309,126,299,152,288C176.8,277,202,267,227,250.7C252.6,235,278,213,303,176C328.4,139,354,85,379,101.3C404.2,117,429,203,455,208C480,213,505,139,531,117.3C555.8,96,581,128,606,160C631.6,192,657,224,682,229.3C707.4,235,733,213,758,192C783.2,171,808,149,834,160C858.9,171,884,213,909,224C934.7,235,960,213,985,186.7C1010.5,160,1036,128,1061,106.7C1086.3,85,1112,75,1137,106.7C1162.1,139,1187,213,1213,218.7C1237.9,224,1263,160,1288,160C1313.7,160,1339,224,1364,245.3C1389.5,267,1415,245,1427,234.7L1440,224L1440,320L1427.4,320C1414.7,320,1389,320,1364,320C1338.9,320,1314,320,1288,320C1263.2,320,1238,320,1213,320C1187.4,320,1162,320,1137,320C1111.6,320,1086,320,1061,320C1035.8,320,1011,320,985,320C960,320,935,320,909,320C884.2,320,859,320,834,320C808.4,320,783,320,758,320C732.6,320,707,320,682,320C656.8,320,632,320,606,320C581.1,320,556,320,531,320C505.3,320,480,320,455,320C429.5,320,404,320,379,320C353.7,320,328,320,303,320C277.9,320,253,320,227,320C202.1,320,177,320,152,320C126.3,320,101,320,76,320C50.5,320,25,320,13,320L0,320Z"></path>
</svg>